<?xml version="1.0" standalone="no"?>
<!DOCTYPE svg PUBLIC "-//W3C//DTD SVG 20010904//EN"
 "http://www.w3.org/TR/2001/REC-SVG-20010904/DTD/svg10.dtd">
<svg version="1.0" xmlns="http://www.w3.org/2000/svg"
 width="900.000000pt" height="900.000000pt" viewBox="0 0 900.000000 900.000000"
 preserveAspectRatio="xMidYMid meet">
<metadata>
Created by potrace 1.10, written by Peter Selinger 2001-2011
</metadata>
<g transform="translate(0.000000,900.000000) scale(0.100000,-0.100000)"
fill="#ffffff" stroke="none">
<path d="M7500 5614 c-111 -16 -224 -40 -295 -61 -152 -46 -326 -124 -424
-188 -29 -19 -55 -35 -57 -35 -18 0 -189 -143 -285 -239 -264 -265 -392 -497
-465 -842 -20 -100 -15 -461 9 -554 36 -142 81 -241 169 -377 58 -90 272 -298
306 -298 5 0 14 -6 20 -13 6 -6 41 -27 79 -45 37 -19 76 -38 85 -43 26 -14
133 -45 218 -65 57 -13 119 -18 256 -18 186 1 241 8 389 56 289 93 555 333
705 636 34 69 30 92 -16 92 -18 0 -29 -13 -52 -57 -48 -94 -55 -105 -104 -179
-55 -82 -212 -237 -295 -290 -157 -100 -263 -133 -427 -134 -165 0 -258 34
-329 122 -42 53 -50 68 -76 144 -66 201 -58 470 26 789 44 171 133 419 183
514 5 9 25 50 45 91 20 41 52 102 71 135 19 33 39 69 45 80 28 55 155 246 208
313 109 137 242 256 346 310 85 43 123 52 228 52 86 0 110 -4 152 -24 95 -45
131 -110 159 -286 13 -85 17 -178 16 -485 0 -209 0 -386 0 -393 0 -9 11 -12
32 -10 34 3 41 12 73 98 10 25 23 59 30 75 8 17 27 65 44 108 17 42 45 112 62
155 17 42 38 95 46 117 9 22 21 54 28 70 7 17 21 50 30 75 10 25 23 59 30 75
8 17 28 66 45 110 18 44 46 114 62 155 17 41 43 106 59 144 16 38 29 74 29 82
0 7 9 19 20 27 21 14 21 14 -2 21 -45 12 -57 5 -106 -62 -52 -69 -117 -123
-186 -154 -46 -22 -85 -23 -123 -4 -15 8 -45 21 -65 30 -21 9 -53 22 -70 30
-244 104 -305 125 -446 151 -103 19 -349 18 -482 -1z"/>
<path d="M1029 5574 c-22 -27 14 -44 95 -45 118 0 216 -22 243 -53 43 -50 41
-73 -18 -258 -10 -31 -23 -67 -28 -80 -5 -12 -16 -41 -24 -63 -8 -22 -29 -76
-47 -120 -18 -44 -38 -97 -46 -117 -37 -100 -47 -125 -59 -153 -7 -16 -19 -48
-28 -70 -29 -77 -50 -130 -62 -160 -7 -16 -20 -48 -28 -70 -8 -22 -29 -76 -47
-120 -18 -44 -46 -114 -62 -155 -16 -41 -36 -88 -43 -105 -7 -16 -27 -66 -45
-110 -17 -44 -38 -93 -45 -110 -7 -16 -34 -82 -60 -145 -26 -63 -53 -128 -61
-145 -7 -16 -25 -57 -39 -90 -56 -125 -68 -152 -102 -220 -102 -200 -152 -231
-418 -253 -77 -7 -80 -8 -80 -32 l0 -25 880 0 880 0 3 28 3 27 -97 0 c-104 0
-217 22 -246 48 -29 25 -23 103 17 220 19 56 39 110 44 120 5 9 16 36 25 60
33 87 49 128 61 157 7 17 21 50 30 75 10 25 21 54 26 65 4 11 17 44 28 73 12
28 30 76 42 105 11 28 24 61 28 72 5 11 16 40 26 65 9 25 23 59 30 75 7 17 20
50 30 75 9 25 20 52 25 60 6 12 39 16 186 18 200 3 227 -3 264 -63 24 -39 27
-148 6 -216 -15 -50 -39 -134 -60 -211 -8 -29 -23 -82 -33 -118 -27 -98 -25
-323 4 -405 35 -97 53 -126 122 -196 103 -104 221 -152 414 -170 164 -16 321
3 457 53 159 59 306 206 420 420 50 94 60 131 40 143 -17 10 -34 -9 -65 -72
-39 -78 -124 -208 -171 -262 -22 -25 -65 -64 -98 -88 -49 -36 -65 -43 -105
-43 -26 0 -52 5 -59 12 -16 16 -15 100 2 162 82 291 91 521 24 666 -55 119
-207 280 -295 313 -103 39 -120 45 -178 62 -33 10 -66 19 -72 21 -7 2 -13 8
-13 14 0 6 37 10 98 10 181 0 405 52 564 131 88 43 95 47 176 108 112 82 202
216 224 331 43 223 2 395 -126 525 -58 59 -75 71 -156 111 -125 61 -291 103
-490 124 -65 6 -442 10 -1001 10 -812 0 -898 -2 -910 -16z m1575 -54 c136 -16
187 -59 214 -178 27 -120 -1 -361 -59 -517 -13 -35 -67 -153 -79 -175 -5 -8
-19 -33 -30 -54 -31 -57 -100 -145 -153 -193 -95 -88 -172 -110 -411 -119
-175 -7 -176 -7 -176 14 0 12 7 38 16 59 32 76 42 99 59 143 10 25 23 59 30
75 8 17 27 65 44 108 17 42 45 112 62 155 17 42 36 91 44 107 7 17 20 50 30
75 10 25 23 59 30 75 8 17 27 65 44 108 73 183 94 235 114 280 l20 47 56 0
c31 0 96 -5 145 -10z"/>
<path d="M4494 5575 c-14 -36 3 -45 81 -45 42 0 109 -5 148 -11 138 -22 157
-80 93 -279 -32 -100 -42 -126 -71 -195 -7 -16 -20 -49 -29 -72 -30 -81 -49
-128 -61 -158 -12 -28 -22 -53 -59 -152 -8 -21 -28 -74 -46 -118 -18 -44 -39
-98 -47 -120 -8 -22 -21 -53 -28 -70 -7 -16 -20 -50 -30 -75 -10 -25 -23 -58
-30 -75 -7 -16 -21 -50 -30 -75 -10 -25 -23 -58 -30 -75 -8 -16 -28 -66 -45
-110 -17 -44 -38 -93 -45 -110 -7 -16 -34 -82 -60 -145 -26 -63 -53 -130 -61
-147 -8 -18 -21 -50 -30 -70 -35 -82 -43 -100 -74 -168 -65 -142 -116 -234
-153 -273 -57 -60 -131 -83 -322 -100 -77 -7 -80 -8 -80 -32 l0 -25 880 0 880
0 0 25 c0 25 -1 25 -115 31 -63 3 -134 12 -158 19 -45 14 -92 59 -92 88 0 19
25 98 46 150 8 18 14 39 14 47 0 8 7 31 16 52 29 66 42 97 57 138 15 39 41
106 107 270 18 44 39 98 47 120 9 22 21 54 28 70 7 17 21 50 30 75 10 25 23
59 31 75 7 17 22 55 34 85 11 30 25 64 29 75 5 11 23 55 40 98 76 190 94 234
106 262 7 17 28 66 45 110 17 44 38 94 45 110 7 17 27 66 45 110 18 44 38 94
45 110 8 17 37 86 65 155 63 151 104 234 137 278 40 53 109 77 264 91 74 7
138 16 142 21 5 4 7 16 5 26 -3 18 -35 19 -881 22 -774 2 -878 0 -883 -13z"/>
</g>
</svg>
